<svg xmlns:xlink="http://www.w3.org/1999/xlink" width="1000" height="1029.8507462686568" viewBox="0 0 134 138" fill="none" xmlns="http://www.w3.org/2000/svg"><script xmlns=""/>
<path d="M58.2046 128.586C58.2046 134.495 54.4106 137.628 49.7821 137.628C45.1536 137.628 41.6289 134.113 41.6289 128.917C41.6289 123.466 45.2077 119.9 50.0514 119.9C54.8951 119.9 58.2046 123.491 58.2046 128.586ZM44.131 128.866C44.131 132.533 46.2298 135.819 49.9165 135.819C53.6032 135.819 55.7291 132.585 55.7291 128.688C55.7291 125.275 53.8454 121.709 49.9436 121.709C46.0418 121.709 44.1315 125.097 44.1315 128.866L44.131 128.866Z" fill="#182852"/>
<path d="M61.3936 119.914C62.7769 119.706 64.4211 119.549 66.2219 119.549C69.4841 119.549 71.8072 120.306 73.3466 121.741C74.9127 123.177 75.8259 125.212 75.8259 128.057C75.8259 130.903 74.9387 133.277 73.2941 134.895C71.6499 136.539 68.9354 137.427 65.5164 137.427C63.8983 137.427 62.5411 137.349 61.3926 137.218V119.915L61.3936 119.914ZM63.6646 135.469C64.2389 135.574 65.0739 135.6 65.9611 135.6C70.8154 135.6 73.4513 132.885 73.4513 128.135C73.4773 123.986 71.1288 121.35 66.3266 121.35C65.152 121.35 64.2649 121.454 63.6646 121.584V135.469Z" fill="#182852"/>
<path d="M78.8535 119.792H81.5197V128.268H81.6116C82.1636 127.59 82.715 126.964 83.2361 126.39L89.5497 119.792H92.8597L85.3817 127.251L93.4419 137.371H90.2854L83.4815 128.738L81.5202 130.668V137.371H78.854V119.791L78.8535 119.792Z" fill="#182852"/>
<path d="M30.7192 137.561L24.293 119.756H27.0389L30.1061 128.526C30.9534 130.93 31.6833 133.096 32.2092 135.184H32.2677C32.8228 133.123 33.6403 130.877 34.5169 128.553L37.8471 119.756H40.5637L33.524 137.561H30.7197H30.7192Z" fill="#182852"/>
<path d="M98.1157 131.859L96.0784 137.378H93.459L100.124 119.83H103.179L109.873 137.378H107.166L105.071 131.859H98.1157ZM104.547 130.088L102.626 125.038C102.19 123.892 101.898 122.851 101.608 121.835H101.549C101.258 122.877 100.938 123.944 100.56 125.012L98.6389 130.088H104.547H104.547Z" fill="#182852"/>
<path d="M27.1252 75.6032C27.1252 78.1653 26.5584 80.2424 23.6547 81.4886C26.5584 82.1117 27.6915 84.8125 27.6915 87.1668V99.9076C27.6915 105.447 25.3541 107.802 19.4762 107.802H8.21533C2.33684 107.802 0 105.447 0 99.9076V87.1668C0 84.8125 1.48742 81.9736 4.24924 81.4886C1.48689 80.5887 0.77877 77.9571 0.77877 75.6032V65.2858C0.77877 59.7463 3.39928 57.5996 9.27778 57.5996H18.6262C24.5047 57.5996 27.1252 59.7463 27.1252 65.2858V75.6032ZM10.7652 67.5016V76.7804C10.7652 77.7499 11.1902 78.0267 12.2526 78.0267H15.5106C16.573 78.0267 16.9274 77.7499 16.9274 76.7804V67.5016C16.9274 66.7398 16.7855 66.3934 15.7231 66.3934H11.9695C11.0489 66.3934 10.7652 66.7398 10.7652 67.5016ZM16.9268 97.6919V86.8205C16.9268 86.0587 16.6437 85.6433 15.5812 85.6433H12.1108C11.1902 85.6433 10.7652 86.0587 10.7652 86.8205V97.6919C10.7652 98.9382 11.332 99.0768 12.182 99.0768H15.5106C16.3605 99.0768 16.9274 98.9382 16.9274 97.6919H16.9268Z" fill="#182852"/>
<path d="M81.7478 57.5996H96.2066V90.6979H99.0699V98.6609H96.2066V107.801H85.971V98.6609H70.1523V87.305L81.7478 59.3309V57.5996ZM85.971 90.6984V71.3795L80.1016 87.79V90.6984H85.971Z" fill="#182852"/>
<path d="M62.4553 75.6032C62.4553 78.1653 61.8885 80.2424 58.9848 81.4886C61.8885 82.1117 63.0216 84.8125 63.0216 87.1668V99.9076C63.0216 105.447 60.6842 107.802 54.8062 107.802H43.5454C37.6669 107.802 35.3301 105.447 35.3301 99.9076V87.1668C35.3301 84.8125 36.8175 81.9736 39.5793 81.4886C36.817 80.5887 36.1088 77.9571 36.1088 75.6032V65.2858C36.1088 59.7463 38.7294 57.5996 44.6079 57.5996H53.9563C59.8348 57.5996 62.4553 59.7463 62.4553 65.2858V75.6032ZM46.0953 67.5016V76.7804C46.0953 77.7499 46.5202 78.0267 47.5827 78.0267H50.8407C51.9031 78.0267 52.2574 77.7499 52.2574 76.7804V67.5016C52.2574 66.7398 52.1156 66.3934 51.0532 66.3934H47.2996C46.3789 66.3934 46.0953 66.7398 46.0953 67.5016ZM52.2569 97.6919V86.8205C52.2569 86.0587 51.9738 85.6433 50.9113 85.6433H47.4409C46.5203 85.6433 46.0953 86.0587 46.0953 86.8205V97.6919C46.0953 98.9382 46.6621 99.0768 47.512 99.0768H50.8407C51.6906 99.0768 52.2574 98.9382 52.2574 97.6919H52.2569Z" fill="#182852"/>
<path d="M133.301 75.6032C133.301 78.1653 132.734 80.2424 129.831 81.4886C132.734 82.1117 133.867 84.8125 133.867 87.1668V99.9076C133.867 105.447 131.53 107.802 125.652 107.802H114.391C108.513 107.802 106.176 105.447 106.176 99.9076V87.1668C106.176 84.8125 107.663 81.9736 110.425 81.4886C107.663 80.5887 106.955 77.9571 106.955 75.6032V65.2858C106.955 59.7463 109.575 57.5996 115.453 57.5996H124.802C130.68 57.5996 133.3 59.7463 133.3 65.2858V75.6032H133.301ZM116.941 67.5016V76.7804C116.941 77.7499 117.366 78.0267 118.428 78.0267H121.686C122.749 78.0267 123.103 77.7499 123.103 76.7804V67.5016C123.103 66.7398 122.961 66.3934 121.899 66.3934H118.146C117.225 66.3934 116.942 66.7398 116.942 67.5016H116.941ZM123.103 97.6919V86.8205C123.103 86.0587 122.819 85.6433 121.757 85.6433H118.287C117.366 85.6433 116.941 86.0587 116.941 86.8205V97.6919C116.941 98.9382 117.507 99.0768 118.357 99.0768H121.686C122.536 99.0768 123.103 98.9382 123.103 97.6919Z" fill="#182852"/>
<path fill-rule="evenodd" clip-rule="evenodd" d="M8.53711 43.3514L31.863 20.1673L39.723 29.4833L65.7927 0L88.2267 25.4258L96.8686 18.0344L109.834 32.1569L112.791 29.0201L126.497 44.6364L116.311 37.8527L114.007 40.6538L97.1581 26.6179L89.1558 26.2561L94.4494 32.898L72.0148 18.1906L70.7006 21.2988L67.7661 14.4513L53.9852 35.688L50.3963 28.7885L41.2805 31.7665L46.5417 38.3303L36.9043 34.8832L17.1153 46.1121L18.5389 39.0681L8.53711 43.3514Z" fill="#182852"/>
</svg>